<svg width="46" height="38" viewBox="0 0 46 38" fill="none" xmlns="http://www.w3.org/2000/svg">
<path d="M22.3906 10.162L7.66664 22.6184V36.0625C7.66664 36.4106 7.80126 36.7445 8.04089 36.9906C8.28052 37.2368 8.60553 37.375 8.94442 37.375L17.8936 37.3513C18.2314 37.3495 18.5548 37.2105 18.793 36.9645C19.0313 36.7186 19.165 36.3857 19.165 36.0388V28.1875C19.165 27.8395 19.2997 27.5056 19.5393 27.2595C19.7789 27.0133 20.1039 26.875 20.4428 26.875H25.5539C25.8928 26.875 26.2178 27.0133 26.4574 27.2595C26.6971 27.5056 26.8317 27.8395 26.8317 28.1875V36.033C26.8312 36.2057 26.8638 36.3768 26.9278 36.5365C26.9918 36.6963 27.0858 36.8414 27.2045 36.9637C27.3232 37.0861 27.4643 37.1831 27.6196 37.2493C27.7749 37.3155 27.9413 37.3496 28.1095 37.3496L37.0555 37.375C37.3944 37.375 37.7194 37.2368 37.959 36.9906C38.1987 36.7445 38.3333 36.4106 38.3333 36.0625V22.6094L23.6125 10.162C23.4394 10.0187 23.2238 9.94058 23.0016 9.94058C22.7793 9.94058 22.5637 10.0187 22.3906 10.162ZM45.6486 18.6284L38.9722 12.9757V1.61353C38.9722 1.35245 38.8712 1.10207 38.6915 0.917467C38.5118 0.732861 38.268 0.62915 38.0138 0.62915H33.5416C33.2875 0.62915 33.0437 0.732861 32.864 0.917467C32.6843 1.10207 32.5833 1.35245 32.5833 1.61353V7.56981L25.4333 1.52739C24.7472 0.947415 23.8862 0.63031 22.9976 0.63031C22.109 0.63031 21.248 0.947415 20.5618 1.52739L0.346573 18.6284C0.249532 18.7108 0.169246 18.8121 0.110302 18.9263C0.0513581 19.0406 0.0149118 19.1657 0.0030456 19.2944C-0.00882064 19.4232 0.00412572 19.553 0.041145 19.6766C0.0781642 19.8002 0.138531 19.9151 0.218796 20.0148L2.25525 22.5577C2.3353 22.6577 2.43376 22.7405 2.54499 22.8013C2.65622 22.8622 2.77804 22.8999 2.90348 22.9123C3.02892 22.9247 3.15551 22.9116 3.27601 22.8737C3.3965 22.8358 3.50854 22.7739 3.6057 22.6915L22.3906 6.79872C22.5637 6.65543 22.7793 6.57729 23.0016 6.57729C23.2238 6.57729 23.4394 6.65543 23.6125 6.79872L42.3982 22.6915C42.4952 22.7739 42.6071 22.8359 42.7274 22.8739C42.8477 22.912 42.9742 22.9253 43.0995 22.9131C43.2249 22.9009 43.3466 22.8634 43.4579 22.8029C43.5691 22.7424 43.6677 22.6599 43.7479 22.5602L45.7843 20.0172C45.8645 19.917 45.9246 19.8015 45.9612 19.6774C45.9978 19.5533 46.0101 19.4229 45.9975 19.2939C45.9849 19.1648 45.9476 19.0396 45.8877 18.9254C45.8278 18.8112 45.7465 18.7103 45.6486 18.6284Z" fill="white"/>
</svg>
