<svg width="44" height="42" viewBox="0 0 44 42" fill="none" xmlns="http://www.w3.org/2000/svg">
<path d="M43.5625 9.50003V10.9375C43.5625 11.1281 43.4868 11.311 43.352 11.4458C43.2172 11.5806 43.0344 11.6563 42.8438 11.6563H40.6875V12.7344C40.6875 13.3298 40.2048 13.8125 39.6094 13.8125H4.39062C3.79523 13.8125 3.3125 13.3298 3.3125 12.7344V11.6563H1.15625C0.965626 11.6563 0.782809 11.5806 0.648017 11.4458C0.513225 11.311 0.4375 11.1281 0.4375 10.9375V9.50003C0.437501 9.35783 0.47968 9.21883 0.558699 9.10061C0.637719 8.9824 0.750028 8.89027 0.881418 8.8359L21.7252 0.929649C21.9011 0.856784 22.0989 0.856784 22.2748 0.929649L43.1186 8.8359C43.25 8.89027 43.3623 8.9824 43.4413 9.10061C43.5203 9.21883 43.5625 9.35783 43.5625 9.50003ZM41.4062 36.8125H2.59375C1.40287 36.8125 0.4375 37.7779 0.4375 38.9688V40.4063C0.4375 40.5969 0.513225 40.7797 0.648017 40.9145C0.782809 41.0493 0.965626 41.125 1.15625 41.125H42.8438C43.0344 41.125 43.2172 41.0493 43.352 40.9145C43.4868 40.7797 43.5625 40.5969 43.5625 40.4063V38.9688C43.5625 37.7779 42.5971 36.8125 41.4062 36.8125ZM7.625 15.25V32.5H4.39062C3.79523 32.5 3.3125 32.9828 3.3125 33.5782V35.375H40.6875V33.5782C40.6875 32.9828 40.2048 32.5 39.6094 32.5H36.375V15.25H30.625V32.5H24.875V15.25H19.125V32.5H13.375V15.25H7.625Z" fill="white"/>
</svg>
